<svg width="16" height="16" viewBox="0 0 16 16" fill="none" xmlns="http://www.w3.org/2000/svg">
<path d="M2.00195 2.66602V4.66602H14.002V2.66602H2.00195ZM15.335 4.66602C15.3348 5.40214 14.7381 5.99885 14.002 5.99902H2.00195C1.26568 5.99902 0.668145 5.40225 0.667969 4.66602V2.66602C0.667969 1.92964 1.26557 1.33203 2.00195 1.33203H14.002C14.7382 1.33221 15.335 1.92974 15.335 2.66602V4.66602Z" fill="#1E1E1E"/>
<path d="M2 12.666V5.33301C2 4.96482 2.2988 4.66602 2.66699 4.66602C3.03518 4.66602 3.33398 4.96482 3.33398 5.33301V12.666C3.33398 12.8428 3.40427 13.0127 3.5293 13.1377C3.65423 13.2625 3.82338 13.3329 4 13.333H12C12.1768 13.333 12.3467 13.2627 12.4717 13.1377C12.5967 13.0127 12.667 12.8428 12.667 12.666V5.33301C12.667 4.96482 12.9658 4.66602 13.334 4.66602C13.702 4.66619 14 4.96493 14 5.33301V12.666C14 13.1964 13.7891 13.705 13.4141 14.0801C13.039 14.4552 12.5304 14.666 12 14.666H4C3.46968 14.6659 2.96093 14.4551 2.58594 14.0801C2.21107 13.705 2 13.1963 2 12.666Z" fill="#1E1E1E"/>
<path d="M9.33398 7.33203C9.70202 7.33221 10 7.63094 10 7.99902C10 8.3671 9.70202 8.66584 9.33398 8.66602H6.66699C6.2988 8.66602 6 8.36721 6 7.99902C6 7.63083 6.2988 7.33203 6.66699 7.33203H9.33398Z" fill="#1E1E1E"/>
</svg>
