<svg width="34" height="34" viewBox="0 0 34 34" fill="none" xmlns="http://www.w3.org/2000/svg">
<path d="M24.0846 31.1667H9.91797C9.33714 31.1667 8.85547 30.685 8.85547 30.1042C8.85547 29.5234 9.33714 29.0417 9.91797 29.0417H24.0846C24.6655 29.0417 25.1471 29.5234 25.1471 30.1042C25.1471 30.685 24.6655 31.1667 24.0846 31.1667Z" fill="url(#paint0_linear_61_21259)"/>
<path d="M28.829 7.82001L23.1623 11.8717C22.4115 12.41 21.3348 12.0842 21.009 11.22L18.3315 4.08001C17.8782 2.84751 16.1357 2.84751 15.6823 4.08001L12.9907 11.2058C12.6648 12.0842 11.6023 12.41 10.8515 11.8575L5.18482 7.80585C4.05149 7.01251 2.54982 8.13168 3.01732 9.44918L8.91066 25.9533C9.10899 26.52 9.64732 26.8883 10.2423 26.8883H23.7432C24.3382 26.8883 24.8765 26.5058 25.0748 25.9533L30.9682 9.44918C31.4498 8.13168 29.9482 7.01251 28.829 7.82001ZM20.5415 20.8958H13.4582C12.8773 20.8958 12.3957 20.4142 12.3957 19.8333C12.3957 19.2525 12.8773 18.7708 13.4582 18.7708H20.5415C21.1223 18.7708 21.604 19.2525 21.604 19.8333C21.604 20.4142 21.1223 20.8958 20.5415 20.8958Z" fill="url(#paint1_linear_61_21259)"/>
<defs>
<linearGradient id="paint0_linear_61_21259" x1="17.0013" y1="29.0417" x2="17.0013" y2="31.1667" gradientUnits="userSpaceOnUse">
<stop stop-color="#F7DA97"/>
<stop offset="0.490385" stop-color="#C4AD78"/>
<stop offset="1" stop-color="#F7DA97"/>
</linearGradient>
<linearGradient id="paint1_linear_61_21259" x1="16.9952" y1="3.15564" x2="16.9952" y2="26.8883" gradientUnits="userSpaceOnUse">
<stop stop-color="#F7DA97"/>
<stop offset="0.490385" stop-color="#C4AD78"/>
<stop offset="1" stop-color="#F7DA97"/>
</linearGradient>
</defs>
</svg>
