<svg width="32" height="32" viewBox="0 0 32 32" fill="none" xmlns="http://www.w3.org/2000/svg">
<path d="M25.3333 4H6.66667C5.19391 4 4 5.19391 4 6.66667V25.3333C4 26.8061 5.19391 28 6.66667 28H25.3333C26.8061 28 28 26.8061 28 25.3333V6.66667C28 5.19391 26.8061 4 25.3333 4Z" stroke="#6B7280" stroke-width="2.66667" stroke-linecap="round" stroke-linejoin="round"/>
<path d="M11.9987 14.6673C13.4715 14.6673 14.6654 13.4734 14.6654 12.0007C14.6654 10.5279 13.4715 9.33398 11.9987 9.33398C10.5259 9.33398 9.33203 10.5279 9.33203 12.0007C9.33203 13.4734 10.5259 14.6673 11.9987 14.6673Z" stroke="#6B7280" stroke-width="2.66667" stroke-linecap="round" stroke-linejoin="round"/>
<path d="M28 20.0009L23.8853 15.8862C23.3853 15.3863 22.7071 15.1055 22 15.1055C21.2929 15.1055 20.6147 15.3863 20.1147 15.8862L8 28.0009" stroke="#6B7280" stroke-width="2.66667" stroke-linecap="round" stroke-linejoin="round"/>
</svg>
