<svg xmlns="http://www.w3.org/2000/svg" width="32" height="32" fill="none"><path stroke="#6b7280" stroke-linecap="round" stroke-linejoin="round" stroke-width="2.667" d="M25.333 4H6.667A2.667 2.667 0 0 0 4 6.667v18.666A2.667 2.667 0 0 0 6.667 28h18.666A2.667 2.667 0 0 0 28 25.333V6.667A2.667 2.667 0 0 0 25.333 4"/><path stroke="#6b7280" stroke-linecap="round" stroke-linejoin="round" stroke-width="2.667" d="M11.999 14.667a2.667 2.667 0 1 0 0-5.333 2.667 2.667 0 0 0 0 5.333M28 20l-4.115-4.114a2.667 2.667 0 0 0-3.77 0L8 28.001"/></svg>