<svg width="20" height="20" viewBox="0 0 20 20" fill="none" xmlns="http://www.w3.org/2000/svg">
<g clip-path="url(#clip0_23_18703)">
<path d="M17.498 9.99963C17.4979 5.85765 14.1401 2.49963 9.99805 2.49963C5.85617 2.49981 2.49822 5.85776 2.49805 9.99963C2.49805 14.1417 5.85606 17.4995 9.99805 17.4996C14.1402 17.4996 17.498 14.1418 17.498 9.99963ZM19.165 9.99963C19.165 15.0622 15.0607 19.1666 9.99805 19.1666C4.93559 19.1665 0.832031 15.0621 0.832031 9.99963C0.832207 4.93728 4.93569 0.833794 9.99805 0.833618C15.0605 0.833618 19.1649 4.93717 19.165 9.99963Z" fill="#1E1E1E"/>
<path d="M8.24469 5.45552C8.92336 5.05666 9.72175 4.91131 10.4976 5.04439C11.2735 5.17748 11.977 5.58085 12.484 6.18306C12.9907 6.78502 13.2681 7.54663 13.2672 8.33345L13.2564 8.56783C13.1499 9.71295 12.2791 10.4798 11.6461 10.9018C11.2832 11.1437 10.9266 11.322 10.6636 11.4389C10.5311 11.4978 10.4189 11.542 10.3384 11.5727C10.2983 11.588 10.2655 11.6004 10.2418 11.6088C10.2299 11.6131 10.2198 11.6161 10.2125 11.6186C10.2088 11.6199 10.2052 11.6207 10.2027 11.6215C10.2016 11.6219 10.2006 11.6232 10.1998 11.6235H10.1978C9.76126 11.769 9.28874 11.5336 9.14313 11.0971C8.99759 10.6605 9.23385 10.188 9.67047 10.0424L9.68317 10.0385C9.696 10.034 9.71674 10.0257 9.74469 10.0151C9.80083 9.99371 9.88437 9.9606 9.9859 9.91548C10.1916 9.82406 10.4603 9.68974 10.7222 9.51509C11.2967 9.13208 11.601 8.7243 11.6011 8.33345V8.33248C11.6017 7.93899 11.4629 7.55738 11.2095 7.2563C10.9561 6.95519 10.6033 6.75351 10.2154 6.68697C9.82759 6.62055 9.42863 6.69366 9.08942 6.89302C8.75023 7.09246 8.49245 7.40563 8.36188 7.77681C8.20904 8.21078 7.73344 8.43829 7.29938 8.2856C6.86522 8.13287 6.63689 7.65726 6.78961 7.2231C7.05084 6.48071 7.56621 5.85434 8.24469 5.45552Z" fill="#1E1E1E"/>
<path d="M10.0098 13.3336C10.4698 13.3339 10.8428 13.7065 10.8428 14.1666C10.8428 14.6267 10.4698 14.9994 10.0098 14.9996H10.001C9.54074 14.9996 9.16797 14.6269 9.16797 14.1666C9.16797 13.7064 9.54074 13.3336 10.001 13.3336H10.0098Z" fill="#1E1E1E"/>
</g>
<defs>
<clipPath id="clip0_23_18703">
<rect width="20" height="20" fill="white"/>
</clipPath>
</defs>
</svg>
